<?xml version="1.0" encoding="utf-8"?>
<!-- Generator: Adobe Illustrator 16.0.0, SVG Export Plug-In . SVG Version: 6.00 Build 0)  -->
<!DOCTYPE svg PUBLIC "-//W3C//DTD SVG 1.1//EN" "http://www.w3.org/Graphics/SVG/1.1/DTD/svg11.dtd">
<svg version="1.1" id="Layer_1" xmlns="http://www.w3.org/2000/svg" xmlns:xlink="http://www.w3.org/1999/xlink" x="0px" y="0px"
	 width="512px" height="512px" viewBox="0 0 512 512" enable-background="new 0 0 512 512" xml:space="preserve">
<g>
	<g>
		<defs>
			<path id="SVGID_1_" d="M424.204,511.602H89.148c-48.487,0-87.795-39.309-87.795-87.797V87.793C1.354,39.307,40.662,0,89.148,0
				h335.056C472.691,0,512,39.307,512,87.793v336.012C512,472.293,472.691,511.602,424.204,511.602"/>
		</defs>
		<use xlink:href="#SVGID_1_"  overflow="visible" fill="#EFA94C"/>
		<clipPath id="SVGID_2_">
			<use xlink:href="#SVGID_1_"  overflow="visible"/>
		</clipPath>
	</g>
	<g>
		<path fill="#FFFFFF" d="M239.555,430.263c-21.422,0-21.097-10.708-23.5-19.388c-4.923-17.792-5.237-23.625-9.14-41.666
			c-4.257-19.677-13.797-29.274-33.981-32.448c-15.518-2.438-31.107-4.218-46.344-8.335c-17.823-4.819-25.988-17.728-21.313-35.426
			c1.816-6.875,3.197-12.842-2.037-19.377c-4.98-6.22,7.72-8.186,7.446-11.792c-0.452-5.942-11.829-11.738-3.801-19.815
			c5.101-5.131,6.562-11.315-1.331-16.042c-17.883-10.715-19.723-18.618,2.12-28.411c7.164-3.21,17.98-8.884,24.122-13.776
			c5.023-4.004,9.887-9.922,9.991-18.57c0.314-25.855,11.457-47.439,27.353-66.377c25.852-30.802,58.212-51.586,99.719-50.555
			c40.235,1.001,79.496,8.605,112.693,33.857c31.593,24.031,41.704,57.779,39.881,95.721c-2.131,44.39-13.951,85.814-40.796,122.102
			c-5.609,7.585-11.38,15.036-18.589,21.147c-9.682,8.209-12.749,18.714-12.651,31.026c0.189,23.735,5.65,38.703,9.708,61.769
			c0.89,5.053-2.394,15.152-15.78,15.152c-37.945,0-39.377,0.284-77.324,0.567C263.84,429.644,243.161,430.263,239.555,430.263z"/>
		<g>
			<circle fill="#86C9BB" cx="227.118" cy="112.533" r="19.272"/>
			<circle fill="#86C9BB" cx="227.118" cy="167.438" r="19.272"/>
			<circle fill="#86C9BB" cx="227.118" cy="222.622" r="19.272"/>
			<path fill="#86C9BB" d="M367.96,123.579H265.125c-1.545,0-2.809-1.265-2.809-2.809v-18.482c0-1.543,1.264-2.809,2.809-2.809
				H367.96c1.546,0,2.809,1.265,2.809,2.809v18.482C370.769,122.314,369.506,123.579,367.96,123.579z"/>
			<path fill="#86C9BB" d="M367.96,179.49H265.125c-1.545,0-2.809-1.265-2.809-2.809v-18.483c0-1.544,1.264-2.808,2.809-2.808
				H367.96c1.546,0,2.809,1.264,2.809,2.808v18.483C370.769,178.225,369.506,179.49,367.96,179.49z"/>
			<path fill="#86C9BB" d="M367.96,234.425H265.125c-1.545,0-2.809-1.263-2.809-2.807v-18.484c0-1.543,1.264-2.807,2.809-2.807
				H367.96c1.546,0,2.809,1.264,2.809,2.807v18.484C370.769,233.163,369.506,234.425,367.96,234.425z"/>
		</g>
	</g>
</g>
</svg>
